HIERARCHY
ROOT Hips
{
	OFFSET 0.00000 0.00000 0.00000
	CHANNELS 6 Xposition Yposition Zposition Zrotation Yrotation Xrotation 
	JOINT LHipJoint
	{
		OFFSET 0 0 0
		CHANNELS 3 Zrotation Yrotation Xrotation
		JOINT LeftHip
		{
			OFFSET 1.43652 -1.81092 0.91346
			CHANNELS 3 Zrotation Yrotation Xrotation
			JOINT LeftKnee
			{
				OFFSET 2.45984 -6.75837 0.00000
				CHANNELS 3 Zrotation Yrotation Xrotation
				JOINT LeftAnkle
				{
					OFFSET 2.63718 -7.24559 0.00000
					CHANNELS 3 Zrotation Yrotation Xrotation
					JOINT LeftToe
					{
						OFFSET 0.19690 -0.54098 2.12239
						CHANNELS 3 Zrotation Yrotation Xrotation
						End Site
						{
							OFFSET 0.00000 -0.00000 1.10116
						}
					}
				}
			}
		}
	}
	JOINT RHipJoint
	{
		OFFSET 0 0 0
		CHANNELS 3 Zrotation Yrotation Xrotation
		JOINT RightHip
		{
			OFFSET -1.35116 -1.81092 0.91345
			CHANNELS 3 Zrotation Yrotation Xrotation
			JOINT RightKnee
			{
				OFFSET -2.55576 -7.02189 0.00000
				CHANNELS 3 Zrotation Yrotation Xrotation
				JOINT RightAnkle
				{
					OFFSET -2.61938 -7.19669 0.00000
					CHANNELS 3 Zrotation Yrotation Xrotation
					JOINT RightToe
					{
						OFFSET -0.32509 -0.89318 2.23646
						CHANNELS 3 Zrotation Yrotation Xrotation
						End Site
						{
							OFFSET -0.00000 -0.00000 1.19625
						}
					}
				}
			}
		}
	}
	JOINT lowerback
	{
		OFFSET 0 0 0
		CHANNELS 3 Zrotation Yrotation Xrotation
		JOINT Chest
		{
			OFFSET 0.05193 2.08077 -0.11958
			CHANNELS 3 Zrotation Yrotation Xrotation
			JOINT Chest2
			{
				OFFSET 0.04960 2.08447 0.01967
				CHANNELS 3 Zrotation Yrotation Xrotation
				JOINT lowerneck
				{
					OFFSET 0 0 0
					CHANNELS 3 Zrotation Yrotation Xrotation
					JOINT Neck
					{
						OFFSET -0.10699 1.82066 0.27584
						CHANNELS 3 Zrotation Yrotation Xrotation
						JOINT Head
						{
							OFFSET 0.14949 1.84747 -0.32279
							CHANNELS 3 Zrotation Yrotation Xrotation
							End Site
							{
								OFFSET 0.04969 1.88916 -0.14562
							}
						}
					}
				}
				JOINT LeftCollar
				{
					OFFSET 0 0 0
					CHANNELS 3 Zrotation Yrotation Xrotation
					JOINT LeftShoulder
					{
						OFFSET 3.73629 1.27211 -0.12847
CHANNELS 3 Zrotation Xrotation Yrotation
						JOINT LeftElbow
						{
OFFSET 0 -5.109950 0.000000
CHANNELS 3 Zrotation Xrotation Yrotation
							JOINT LeftWrist
							{
OFFSET 0 -3.212070 0.000000
CHANNELS 3 Zrotation Xrotation Yrotation
								JOINT lhand
								{
									OFFSET 0 0 0
CHANNELS 3 Zrotation Xrotation Yrotation
									JOINT LFingers
									{
OFFSET 0 -0.633490 0.000000
CHANNELS 3 Zrotation Xrotation Yrotation
										End Site
										{
OFFSET 0 -0.510740 0.000000
										}
									}
								}
								JOINT LThumb
								{
OFFSET 0 0.000000 0.000000
CHANNELS 3 Zrotation Xrotation Yrotation
									End Site
									{
OFFSET 0 -0.518530 0.518530
									}
								}
							}
						}
					}
				}
				JOINT RightCollar
				{
					OFFSET 0 0 0
					CHANNELS 3 Zrotation Yrotation Xrotation
					JOINT RightShoulder
					{
						OFFSET -3.70251 1.29541 -0.35354
CHANNELS 3 Zrotation Xrotation Yrotation
						JOINT RightElbow
						{
OFFSET 0 -5.251090 0.000000
CHANNELS 3 Zrotation Xrotation Yrotation
							JOINT RightWrist
							{
OFFSET 0 -3.283640 0.000000
CHANNELS 3 Zrotation Xrotation Yrotation
								JOINT rhand
								{
									OFFSET 0 0 0
CHANNELS 3 Zrotation Xrotation Yrotation
									JOINT RFingers
									{
OFFSET 0 -0.599740 0.000000
CHANNELS 3 Zrotation Xrotation Yrotation
										End Site
										{
OFFSET 0 -0.483530 0.000000
										}
									}
								}
								JOINT RThumb
								{
OFFSET 0 0.000000 0.000000
CHANNELS 3 Zrotation Xrotation Yrotation
									End Site
									{
OFFSET 0 -0.490910 0.490910
									}
								}
							}
						}
					}
				}
			}
		}
	}
}
MOTION
Frames: 6
Frame Time: 0.008333333333333333
9.866700 16.999100 -9.215000 -167.564000 -76.115000 -179.347000 0.000000 0.000000 0.000000 -2.479200 4.269000 -28.547800 3.019100 10.725900 31.360800 0.305800 2.739100 -11.818900 0.322800 -3.651700 -10.098900 0.000000 0.000000 0.000000 13.245300 18.592000 -35.073000 -5.935900 -14.366000 44.724000 -1.161700 3.148500 -19.570300 -0.046700 1.394700 -3.835600 -1.612100 2.315900 11.949800 2.577800 2.883400 2.094800 3.155100 1.415500 -4.714300 -5.134600 9.013100 -17.285400 4.026900 12.719400 8.970000 3.147500 6.347900 4.872400 -0.000000 -0.000000 0.000000 -8.746600 -21.499600 -81.070400 35.004100 -44.815100 14.816300 19.223100 -14.585400 -16.723800 0.000000 0.000000 0.000000 -7.125000 0.000000 0.000000 -8.268100 47.459200 0.505000 -0.000000 -0.000000 0.000000 -1.103700 -9.279500 48.984200 -63.128100 -57.087500 -36.955800 -23.977400 -73.572500 6.007100 0.000000 0.000000 0.000000 7.125000 0.000000 -0.000000 2.318300 36.541000 0.482600
9.869559 16.998852 -9.184538 -168.226673 -76.219157 -178.949184 0.000000 0.000000 0.000000 -2.720441 4.048990 -28.306910 3.028656 10.741336 31.412364 0.305793 2.827996 -11.876449 0.318744 -3.629221 -10.035731 0.000000 0.000000 0.000000 13.053058 18.325306 -34.868281 -5.930372 -14.360503 44.701488 -1.160662 3.232448 -19.546643 -0.050079 1.444106 -3.971666 -1.374917 2.160193 12.255912 2.530551 2.694598 2.198955 2.995379 1.314165 -4.747480 -5.176661 9.028482 -17.304110 3.968425 12.757542 8.926110 3.137616 6.361522 4.861054 0.000000 0.000000 0.000000 -8.704078 -22.261037 -81.574009 35.335179 -45.049991 15.050084 20.016658 -13.971106 -15.895921 0.000000 0.000000 0.000000 -7.125000 0.000000 0.000000 -7.314942 46.708847 0.310765 0.000000 0.000000 0.000000 -2.066737 -9.656892 49.823532 -65.086071 -57.514312 -38.604571 -22.498516 -68.428724 6.560967 0.000000 0.000000 0.000000 7.125000 0.000000 0.000000 3.615805 37.052229 0.701738
9.871980 16.999244 -9.153464 -169.165840 -76.337035 -178.272967 0.000000 0.000000 0.000000 -3.040581 3.793376 -28.070029 3.038217 10.756622 31.463422 0.305118 2.942165 -11.939747 0.315766 -3.612101 -9.987788 0.000000 0.000000 0.000000 12.767112 18.054002 -34.690264 -5.929076 -14.359276 44.696365 -1.161483 3.340312 -19.535505 -0.049880 1.441257 -3.963698 -1.215664 2.009176 12.563482 2.479488 2.503197 2.304177 2.877244 1.212968 -4.784766 -5.219243 9.049661 -17.307591 3.853887 12.809358 8.823495 3.108683 6.378762 4.832004 0.000000 0.000000 0.000000 -8.759001 -22.991108 -82.023312 35.572209 -45.216211 15.218126 20.086598 -13.396896 -14.737756 0.000000 0.000000 0.000000 -7.125000 0.000000 0.000000 -6.979391 45.515048 0.075548 0.000000 0.000000 0.000000 -2.935787 -10.039385 50.599117 -67.776289 -58.044860 -40.880485 -23.155675 -65.595794 5.569229 0.000000 0.000000 0.000000 7.125000 0.000000 0.000000 2.975858 36.020253 0.658001
9.874470 16.998041 -9.120884 -170.084908 -76.445958 -177.636923 0.000000 0.000000 0.000000 -3.371654 3.635711 -27.851059 3.048387 10.772972 31.518128 0.305893 2.978627 -11.976588 0.315668 -3.611490 -9.985995 0.000000 0.000000 0.000000 12.494093 17.770333 -34.496558 -5.928907 -14.359107 44.695914 -1.162552 3.456906 -19.525323 -0.050879 1.455026 -4.001833 -1.031859 1.862500 12.904843 2.421652 2.320669 2.410352 2.736741 1.115786 -4.840006 -5.209113 9.092978 -17.309684 3.693160 12.884212 8.727270 3.060130 6.405376 4.810247 0.000000 0.000000 0.000000 -8.735910 -23.676187 -82.495642 35.920567 -45.458370 15.465928 19.284438 -13.292765 -13.215623 0.000000 0.000000 0.000000 -7.125000 0.000000 0.000000 -7.391918 43.826816 -0.215201 0.000000 0.000000 0.000000 -3.686063 -10.466167 50.967722 -70.312930 -58.482493 -43.037473 -23.055605 -62.648033 5.116376 0.000000 0.000000 0.000000 7.125000 0.000000 0.000000 3.025846 35.524309 0.705275
9.876860 16.996910 -9.088051 -171.008671 -76.545255 -176.981501 0.000000 0.000000 0.000000 -3.698018 3.458910 -27.647406 3.062808 10.796054 31.595212 0.307290 3.031427 -12.033788 0.314537 -3.605167 -9.968487 0.000000 0.000000 0.000000 12.215230 17.496332 -34.321963 -5.930521 -14.360645 44.702233 -1.163424 3.583236 -19.513163 -0.051097 1.458607 -4.011531 -0.860059 1.719441 13.234318 2.372376 2.143400 2.510198 2.612819 1.021621 -4.897474 -5.218963 9.145421 -17.324585 3.544946 12.974928 8.649250 3.020851 6.439765 4.793397 0.000000 0.000000 0.000000 -8.747262 -24.350583 -82.968860 36.324094 -45.734516 15.754181 19.210476 -12.902173 -11.987402 0.000000 0.000000 0.000000 -7.125000 0.000000 0.000000 -7.217699 42.538687 -0.440049 0.000000 0.000000 0.000000 -4.403637 -10.893536 51.132138 -72.956524 -58.870133 -45.296164 -23.119276 -60.525099 4.573487 0.000000 0.000000 0.000000 7.125000 0.000000 0.000000 2.935107 34.938745 0.725909
9.879405 16.995282 -9.054654 -171.861710 -76.642384 -176.387045 0.000000 0.000000 0.000000 -4.005682 3.291203 -27.460864 3.078618 10.821218 31.679421 0.309029 3.073193 -12.090259 0.312461 -3.593495 -9.935791 0.000000 0.000000 0.000000 11.952751 17.223835 -34.155750 -5.930955 -14.361155 44.704121 -1.163334 3.709293 -19.493061 -0.051732 1.467286 -4.035554 -0.674527 1.581410 13.561615 2.330749 1.976216 2.603152 2.488462 0.932542 -4.962411 -5.232494 9.205714 -17.344742 3.408423 13.075710 8.590523 2.987343 6.479441 4.782079 0.000000 0.000000 0.000000 -8.802421 -25.004502 -83.477735 36.792313 -46.049929 16.090462 19.395663 -12.457443 -10.910532 0.000000 0.000000 0.000000 -7.125000 0.000000 0.000000 -6.860462 41.431493 -0.605251 0.000000 0.000000 0.000000 -5.061110 -11.316005 51.054326 -75.651516 -59.203076 -47.607456 -23.115868 -59.252113 3.985358 0.000000 0.000000 0.000000 7.125000 0.000000 0.000000 2.900096 34.300737 0.762128
